/* XPM */
static char *result[] = {
/* columns rows colors chars-per-pixel */
"64 64 6 1 ",
"  c #140C1C",
". c #222129",
"X c #442434",
"o c #4E4A4E",
"O c #757161",
"+ c #8595A1",
/* pixels */
".ooO                                                        OOO ",
".ooO                                                        OoO ",
".oo+                                                        OoO ",
".oo+ ooooooooooooooooXOoooooooooooooooooooXOooooooooooooooo OoO ",
".ooO OOOOOOOOOOOOOOOOo+OOOOOOOOOOOOOOOOOOOo+OOOOOOOOOOOOOOO OoO ",
".Oo+ OOOOOOOOOOOOOOOOo+OOOOOOOOOOOOOOOOOOOo+OOOOOOOOOOOOOOO OoO ",
".Oo+ OOOOOOOOOOOOOOOOo+OOOOOOOOOOOOOOOOOOOo+OOOOOOOOOOOOOOO OoO ",
".Oo+ OOOOOOOOOOOOOOOOo+OOOOOOOOOOOOOOOOOOOo+OOOOOOOOOOOOOOO OoO ",
".Oo+ OOOOOOOOOOOOOOOOo+OOOOOOOOOOOOOOOOOOOo+OOOOOOOOOOOOOOO Ooo ",
".Oo+ O+++++++++++++++o++++++++++++++++++++o+++++++++++++++O OOo ",
".Oo+ ooooooooooooooooXooooooooooooooooooooXoooooooooooooooo Ooo ",
".oo+                 X                    X                 +oo ",
".oo+                 X                    X                 +oo ",
".oo+                 X                    X                 +OO ",
".oOO                                                        +OO ",
".ooO                                                        OOO ",
".ooO XXXXXXXXXXXXXXXX oXXXXXXXXXXXXXXXXXXX oXXXXXXXXXXXXXXX OOO ",
".oo+ ooooooooooooooooXOoooooooooooooooooooXOooooooooooooooo OOO ",
".oo+ ooooooooooooooooXOoooooooooooooooooooXOooooooooooooooo OoO ",
".OoO ooooooooooooooooXOoooooooooooooooooooXOooooooooooooooo OoO ",
".OOO ooooooooooooooooXOoooooooooooooooooooXOooooooooooooooo OoO ",
".OOO oOOOOOOOOOOOOOOOoOOOOOOOOOOOOOOOOOOOOoOOOOOOOOOOOOOOOo OoO ",
".OO+                 X                    X                 OoO ",
".OO+                                                        Ooo ",
".Oo+                                                        Ooo ",
".Oo+                                                        +oo ",
".ooO                                                        +oo ",
".OoO XXXXXXXXXXXXXXXX oXXXXXXXXXXXXXXXXXXX oXXXXXXXXXXXXXXX +oO ",
".Oo+ XXXXXXXXXXXXXXXX oXXXXXXXXXXXXXXXXXXX oXXXXXXXXXXXXXXX +OO ",
".OO+ XXXXXXXXXXXXXXXX oXXXXXXXXXXXXXXXXXXX oXXXXXXXXXXXXXXX +OO ",
".OO+ XXXXXXXXXXXXXXXX oXXXXXXXXXXXXXXXXXXX oXXXXXXXXXXXXXXX OOO ",
".OOO XoooooooooooooooXooooooooooooooooooooXoooooooooooooooX ++O ",
".O++ X                                                    X OO+ ",
".+OO                                                        OO+ ",
".+OO                                                        XOO ",
".OOX                                                        ooo ",
".ooo                                                        oo+ ",
".+oo                                                        Oo+ ",
".+oO                                                        oo+ ",
".+oo                  X                    X                oO+ ",
".+Oo                  X                    X                oOO ",
".OOo                  X                    X                oOO ",
".OOo                  X                    X                OOO ",
".OOO  XXXXXXXXXXXXXXX XXXXXXXXXXXXXXXXXXXX XXXXXXXXXXXXXXX  O+O ",
".O+O                                                        oOO ",
".OOo                                                        OOO ",
".OOO                                                        OOO ",
".OOO                                                        oOO ",
".OOo                                                        oO+ ",
".+Oo                                                        oo+ ",
".+oo                                                        oO+ ",
".+Oo                                                        oo+ ",
".+oo                                                        Oo+ ",
".+oO                                                        OoO ",
".OoO                                                        +oO ",
".Oo+                                                        Ooo ",
".ooO                                                        OoO ",
".OoO                                                        +oO ",
".Oo+                                                        +OO ",
".OO+                                                        Ooo ",
".OO++++OOO+OOOOOOOOOOOOOO+++OOOOOOOOOOO+++OOOOOOOOO+OOOO+OOOOoO ",
".OOOOOOOOOOoOOOOOOOOOOOOOOOOOOOOOOOOOOOOOOOOOOOOOOoOOOOOOOOOOOO ",
".                                                               ",
".                                                               "
};
