/* XPM */
static char *result[] = {
/* columns rows colors chars-per-pixel */
"64 64 141 2 ",
"   c #150C1C",
".  c #190F1F",
"X  c #19101F",
"o  c #1E1222",
"O  c #231424",
"+  c #2A1727",
"@  c #241927",
"#  c #291827",
"$  c #251C29",
"%  c #2C1B2A",
"&  c #321C2C",
"*  c #3A1F2F",
"=  c #27202B",
"-  c #2C222E",
";  c #31212F",
":  c #3B202F",
">  c #2E2631",
",  c #2F2933",
"<  c #322531",
"1  c #3C2332",
"2  c #332B35",
"3  c #3B2B36",
"4  c #352E38",
"5  c #3B2E38",
"6  c #363036",
"7  c #393137",
"8  c #36313A",
"9  c #3B343B",
"0  c #3E383E",
"q  c #442535",
"w  c #432937",
"e  c #452C3A",
"r  c #482D3A",
"t  c #44333D",
"y  c #48333E",
"u  c #423B3E",
"i  c #3B3641",
"p  c #3E3A41",
"a  c #3F3E48",
"s  c #453740",
"d  c #493640",
"f  c #443B42",
"g  c #4A3C44",
"h  c #4C3F48",
"j  c #464145",
"k  c #4B4146",
"l  c #4D4B47",
"z  c #45434A",
"x  c #4D444A",
"c  c #4E4A4E",
"v  c #524346",
"b  c #52454A",
"n  c #524B4E",
"m  c #5A4C4C",
"M  c #55504E",
"N  c #59504F",
"B  c #444552",
"V  c #4A4552",
"C  c #474954",
"Z  c #4A4B54",
"A  c #4B4D59",
"S  c #534E50",
"D  c #5A4E53",
"F  c #4E515F",
"G  c #565152",
"H  c #5A5553",
"J  c #5E5956",
"K  c #5A565B",
"L  c #5D5B5B",
"P  c #61504E",
"I  c #615551",
"U  c #615C57",
"Y  c #60565D",
"T  c #625E59",
"R  c #685D5A",
"E  c #65615A",
"W  c #69655C",
"Q  c #6D695D",
"!  c #716C5F",
"~  c #5A5761",
"^  c #5C5C61",
"/  c #615E62",
"(  c #5F6062",
")  c #5C616A",
"_  c #646362",
"`  c #696563",
"'  c #676867",
"]  c #6D6B63",
"[  c #62646B",
"{  c #69626F",
"}  c #67696C",
"|  c #6C6C6B",
" . c #716561",
".. c #716E62",
"X. c #706A6B",
"o. c #6F716F",
"O. c #757264",
"+. c #7B7366",
"@. c #74736B",
"#. c #78766A",
"$. c #79796E",
"%. c #626872",
"&. c #6D6E72",
"*. c #706E74",
"=. c #6E7172",
"-. c #6F7479",
";. c #737572",
":. c #797776",
">. c #777873",
",. c #7A7C75",
"<. c #74797B",
"1. c #7A7E7A",
"2. c #81726A",
"3. c #837D72",
"4. c #847F78",
"5. c #8B7A78",
"6. c #7D817C",
"7. c #84857C",
"8. c #8A837C",
"9. c #7A7F83",
"0. c #7D8383",
"q. c #7E878B",
"w. c #7F888C",
"e. c #7D8992",
"r. c #848582",
"t. c #848885",
"y. c #8A8C84",
"u. c #828A8C",
"i. c #8A8C8D",
"p. c #948B82",
"a. c #9D9186",
"s. c #939389",
"d. c #9A918E",
"f. c #828D92",
"g. c #85939B",
"h. c #979594",
"j. c #999693",
"k. c #9D9896",
"l. c #939598",
"z. c #999B9F",
"x. c #AF9A94",
/* pixels */
"e v m k 8 f s 0 h m j 9 v P m = - c l c j u j 6 4 K / L N / m 2 V { [ { m m P m m m m m v m v - ; 2 & 4 5 2 ; + & + & > + + + . ",
"t n n H c G S n G G ! J ,.! U 2 Z ;.E ;.Q E @.E W O...] ' @.! 9 K ,.#.6.W W ! U U G U J T T G 2 f d 3 g h q r q q + & 1 : * +   ",
"t c c c g c n G H n H j T J E 7 f M c G G H ! U J n S W E U Q 9 ^ $.W ! U J Q n G c G T I I T 5 t c d c x t f 1 1 O & : & & * . ",
"d x n G c x g x n M J h T U Q 9 c c M J c E ! G S S c J W J W 0 ) @.W O.J T W H c J T G U T ! 9 n n d c x h s e 1 O O . . O +   ",
"v c S n g c h d b S c u W #.T 7 H G G S G W E n U Q J T E U W 0 } O.=.,.U U n G c J S S J E W 9 M n l U G c h d * o     . O .   ",
"h S x x x c b g x c f u U ! T 9 G G Z G H M m H J ..W H E U ;.f %.0.>.#.J U T G g c c c G J H 8 c J G E U t k f + O   . . o + O ",
"5 J x k x S G c c c t k S G H 9 M E G G G c U Q J @.T U G U ] 0 %.g.@.W T H W G g c c M S J S 8 x W W W L s b e 3 1 O . O : q & ",
"7 Q H c x n n c c c d b S J ] 9 c W J J E S W W S U J Q T >.O.j ^ f.u...E E E H s c G c x J S 8 j L Q n g # * * ; + o & * & 1 O ",
"0 E G c G G G c c c c g k I E 8 l T J U W n n M M J Q E E #.O.u ^ f.q.W ..>.W k N H G G n b n > l Q W D y & + O   o O + o + q + ",
"m Q n c c n G c n Z f t h H W 9 G n n n H G H G c M M H Q O.! 9 %.g.| U Q H T S W J k c S H M o n Q n s d : 1 & + & + + & : q & ",
"P Q n H v c n c c c t b S G J 7 k H g G n H H c G c J Q #.O.Q 9 ) 0.Q E H H M c n c c x G n 5 o u s 5 5 # & r 1 & + + 1 q q * + ",
"m W n J v n Z c c c g H G H S 8 n W n M G J n c _ J J W Q Q n 2 } t.O.! T J W M G c x c b 5 2 4 f k 2 7 > 3 h % + 1 & * q w O   ",
"u E n u 0 u x x x c n G c Z E 9 l T G W Q W W J T W Q Q T k k 2 J O.O.! H M U M n H c k 2 5 G 0 p 9 y 5 q t r + + d 1 & * % ; + ",
"g n 9 J N M b v v n c J J S W 7 x G W W J U @.] S | O.! H k Q 0 ^ #.O.#.M E Q E n J c 5 g n S 4 x n g G c h r t q s ; + ; x d & ",
"- u W O.J M T H G G c H W J W 4 v W Q G c G G J G @...l f ` >.9 ( $.6.6.J E #.Q J J 4 l N v J 2 g U b n V c h g 1 % ; * 5 h s O ",
"- u k k t 4 t 9 < 3 ; 2 6 t 7 o = 6 2 > , 2 , , 2 z 9 = 0 u u = 9 k u j u u j u 4 - O t 5 - 2 o - 9 2 2 4 < % , % + & + o o O   ",
"c S k v y u v v v v v k v v y = = 2 - > > % % % - < t 4 , - % > Z j x Z g v b K S u j v f 2 O . ; t 2 4 g 5 , , 2 t v y t 5 4 $ ",
"| ] H Q H G J E Q U J E E J H 4 e k x t y h g r x r g g c c c f ` E o.| N ` $.>.>.] T U U W f o f n k n H c x c G c G W m f y ; ",
"E W c U H J ! Q Q M J Q ! J H 6 e c c x h c g g c w w x d S S 4 v U G J G y.y.Q T G E W H S f o d G c c c G G c c r c J n E _ 8 ",
"E J k G n M E O.! E Q W Q E J 6 t x c x d c t r g y q d x x H f | S J J N #.U I W H J W H S t o v G d G G G n d x k c c c H L 0 ",
"U n g S n E E W Q Q U U W Q G 5 t x c c d h r r r 1 q q d x G a [ h n n G Q U W W J J E W c t @ n S c H G J H c c x y y L _ n 8 ",
"H c k M G J @.G G Q W J O.$.E 4 t G c n n t g g r s q q w c J p n d v f x _ L G S G J c E G f o f n G E W H O.L x c x y n G J 9 ",
"U W c k c S J W J W G n O.6.E 4 t G Z n h r c d d d q q r g S p _ m k x x n b c G U n g _ E f o y G J E U n T G k J n u c U Q 9 ",
"L E ' H S c c J J ] E ] 6.0.W 7 t G G g r g c q q k d e x c G 9 n G ^ b c x k G H n k U E L d O f S S n c c G G c J U H c E O.j ",
"U Q @.c c c c c c E 0.6.#.#.! 9 c W E f t x g y r r w r k c G 4 ; v _ k g x c x d G U J n n f o u G c c c c Z c c c c x x N W u ",
"J J v c c S S c H H H ] O.#.! 9 M U J c x x c c g f e x h n J 7 x g g v x I c d y h n n c f t O k G h v J H W n c c c x c T Q 7 ",
"H S k G n n c k J G K @.$.O.T 7 f c c c x x c s g t t f U T J p K g y Z c n y y c d c z x x 3 . t b d c c n J c c c n G T E J 8 ",
"E W ..W c c x c c f J O.1.! n 4 f G n x d d c k x f e e n S g 0 L Z c E J c y e d t c h c d 1 O f n n c g n J c c M c G J n g < ",
"G G W J c c n G c S ' #.O.T k < z G G n f s c n Z x c c c x k 7 n c c c c k t g d x 0 s H x e o z c S x k n E G Z G n H c x x % ",
"G S G H c c n | G G ] W G J G 6 n G J n f n J E G S n m c x c 0 D g g c e f d G d c x  .Q z 1 o x S Z k k G J J n S H x k x c ; ",
"_ _ n n y x n H c J L Q J E o.0 L T G m n G W 0.@.! T H Z H W 0 c h f 2 b 3 n n r c n S g 9 f o c H H n d G T Q G J b g d g c < ",
"a f 2 > - - , , > , 7 u u j c $ 6 5 4 j t t u f j j u u 5 9 u $ O > @ $ < . - < % % < - . 2 2 X % , 2 2 , 7 0 6 , , , < - % , O ",
"$ o > A p 2 - 9 f f i < u u 0 # u ~ n _ m v v g u D S g 0 0 6 o = 8 6 u 9 0 u 0 f z C p j u 9 O > C A A C B B 0 7 f C C C 9 > $ ",
"i f =.6.o.=.' O.$.] 1.i.d.4.<.p L ,.T ] W H ! m U T ] G S J H 2 2 _ G U W n N H ' H _ E ] U E - c $.E ] T D S K S E O.] @.` b ; ",
"p ^ 6.O.W E >.;.@.E O.>.| <.9.f S T c H H H E M G c S S S c G 2 - G k J J n G G L b G Q I m J - 0 G x G y h H U m n T n G G H 8 ",
"c <.#.#.Q E E E ] Q ] U U 0.i.k M H G J c J J H Z H c c c c J 2 o L E W H H J H k f d H W E #.6 B L H W y h v h v T H G U G U 8 ",
") ,.6.6.! O.G G c J H H H T ' 7 L _ G G n J U J H E n n n U J < - J T s.#.! R g v M b T E $.3.2 B L G G m G d x | ..G b J G M 4 ",
"*.t.<.] E M c H c Z M c H U x 4 L E G W U b E H H W J c H ! ! 2 z >.#.s.j W +.W ` H c x G E @.4 j E f g c n S U U @.U h L E n 2 ",
"5.z.=.U H G n G c c c G S J S 4 c E J J v c L H c U G J G Q W O Z g.,.I u W ! H G g 7 5 S ..U > u #.G c _ K @...X.p.T L _ I G 2 ",
"] 6.;.E Z J G x c c c k n S G 7 c ;.O.f 9 c c c n J H T E ! N . u 8.7...! Q E I h 2 c G G | k > u O.J H ^ x n T E ..L G h m k @ ",
"} 6.O.G J J c g c c x d S c H 4 c J J g c c x c n G J J U J m O u #.Q Q I U J J U 0 x c n H G , j W M n k x n G G T U H N k h ; ",
"_ >.! E W c c c c Z d d g n n O M G k x n G n d x c n c G G u O 0 #.T Q W J n c G S d d G n c > Z L c x b n c G c S G H n k ] 9 ",
"E ! Q Q n x c d g g d d e g 5 < f G c c x n g d c c c Z E G - o p $.J J n J b y D x g J E G g - C ( c f b n c j G G x c g S b < ",
"_ 6.O.W H c c k x d g r < 3 k 7 f G G c c c y y n c c k n c <   C ,.H U H G d k c u c n n f w > a E J l x x c c J t j f t v 3 O ",
"n 6.O.] H c c c x c s r g c J 0 f G S c n S c x y k c K K g x $ u W H U G s n H n J S Z c y m 4 u T c t 9 t S x v u b 9 n G t X ",
"S ,.#.0.H Z G H c x < s t f t < z H H c c n G c e n c G H c c % 0 E R 9 t k J n x G | x h k b % 6 l t n c J U c c g 5 u G c 4 . ",
"A ,.! #.L c U E c 5 s b c 3 % & g J G c g f 5 2 % g Z c Z c f . 6 J j < f G T H k c D s k t 2 . = n J n d b n K b h ; 3 e 2 - O ",
"= 7 6 6 9 2 7 9 $ . & 2 4 $ @ O - 4 2 2 1 + - - + O 2 2 , 2 O   o , , > 2 , 8 4 % > > > < O     $ 2 2 @ - % > 4 < > o   . . @   ",
"- > < , 4 3 , , 2 4 g v v u 5 $ > u t y g t t 2 , 2 7 2 > , < . f L A K G 0 j f A K D 9 A F z @ 8 c f C 0 0 u z C j u 0 0 2 -   ",
"y t 3 x x r c g h d S W T N S , 2 M c U H c c x x t h b x c g + L 8.X.r.,.=.o.E 1.i.j.;.x.u.O.2 x ` ] -.L J #.#.1.O.' L E E J > ",
"; d q g c b S e t q n T m ' 1.0 2 J J Q W J J y d r y c g g x % z T U #.E @.$.#.;.@.q.Y ,._ 7.0 2 U H H G W k.@.W H J Q J M n < ",
"2 y w y g c g t x c c n E L } 9 0 W G W J H n x x w w q r r r + H :.8.l.;.J X.X.;.0._ c X...,.0 c _ n E G E #.b Q J H E E M v - ",
"5 w r x c c x h c h k k W _ G 2 u Q W <.E Z G n t q q : q r q + A 6.,.u.| @.a.m D >.` b <._ U 2 B H x S c E Q U Q J E H Q J k - ",
"* y t k c g U S c c c t n J E 0 9 W T 6.>.G T E r r * & : r y % A 6.W ] 1.#.@.H } _ N j =.e.>.2 7 b k d g n ' G G c J S G E c 2 ",
"; c g x g r n x t t d d c E ! u 9 <.@.1.=.G G b g d 1 1 r x n - z 1.n | 0.>.q.7.y.! v v J | >.2 z W h x x c S x n H J h G ] S 4 ",
"1 y k d r q g d q g v k M E #.u 2 Y R m g ; * y t < 1 f g s h + g j.>...Q ! #.y.@.T I b H ,.1.2 8 H H K x n f n H H b n E E n ; ",
"; d s r r q q q q g b g h U o.0 0 O.] P g t 3 q * q r 3 % % 1 # z w.X.Q t.X.i.O.I W E y c J E , o e L S g d c n d x J E S n c < ",
"3 s 1 t d r g d y g k c g I W 6 0 E k j k w r y y d q : t z j - ~ h./ Q T G E b n L u 5 d J ' 2 2 b h g c m N g d g k n n f x & ",
"& q 1 e 1 t t s k y k Z J J J , 2 f ; 1 $ ; g r e ; q r c c y # R k.| 4.&.G E n J J s D H n G % z G r x n S h y d h g n j x d % ",
"* e s 1 1 e g h c y d S S c s - > f 1 5 ; 5 k 1 q r q r k x & . ~ g.| W U U E H L x t | T n h < a K n S ' n h e f y x x x c r % ",
"% q q 1 5 r c g d g c h g x d % # 4 r e r e 1 q 1 r r e 5 2 u % A u.| n i f c c S c n | K g S a 0 n c c S x s t d f x 3 n S d & ",
"& w w 1 3 t x g r h y r t x c % > x g g x r g t 3 s 1 O 2 n h % j E z | | m k m m S r / _ k ^ 8 p n d c f s s n x g c D 2.S t + ",
"q r d w * r g c g c 5 1 1 s c - 8 H x c x d d h r % % e t k f o - C -.$.T H 3.W G m f G f 0 c % 4 c d 9 f g 5 J d d S n n 9 f < ",
"O + & & + > 8 4 4 < < + + < < O $ 8 2 4 4 < % < < % % % O o @   = j l v u 7 j 9 % > o > < 2 > . o , < o 8 # O 4 < & < 4 O $ f $ "
};
