/* XPM */
static char *result[] = {
/* columns rows colors chars-per-pixel */
"32 32 232 2 ",
"   c #040404",
".  c #0C0705",
"X  c #05060A",
"o  c #07090A",
"O  c #120907",
"+  c #131304",
"@  c #1C1902",
"#  c #080914",
"$  c #02081D",
"%  c #090E1B",
"&  c #0F1017",
"*  c #151518",
"=  c #2A1906",
"-  c #361E0B",
";  c #2F1616",
":  c #2A1C16",
">  c #221E1D",
",  c #2A2508",
"<  c #3C2405",
"1  c #2A251A",
"2  c #020B21",
"3  c #090F26",
"4  c #07112D",
"5  c #0B142A",
"6  c #121525",
"7  c #161927",
"8  c #0D1736",
"9  c #0E1937",
"0  c #0E1939",
"q  c #101C37",
"w  c #121D3B",
"e  c #1D1F3D",
"r  c #380F25",
"t  c #3C1223",
"y  c #17213E",
"u  c #29242F",
"i  c #451B1B",
"p  c #462C0B",
"a  c #4E3B08",
"s  c #573901",
"d  c #46241B",
"f  c #522915",
"g  c #643E03",
"h  c #693D02",
"j  c #6F371C",
"k  c #4F182E",
"l  c #572A28",
"z  c #4F2D32",
"x  c #6A2D25",
"c  c #773825",
"v  c #65263A",
"b  c #684503",
"n  c #734A01",
"m  c #784B03",
"M  c #785801",
"N  c #6A411B",
"B  c #796906",
"V  c #76740F",
"C  c #767B11",
"Z  c #797815",
"A  c #5A433F",
"S  c #694738",
"D  c #7C4438",
"F  c #797A2B",
"G  c #101E42",
"H  c #152143",
"J  c #182444",
"K  c #19264C",
"L  c #1B284E",
"P  c #162855",
"I  c None",
"U  c #2C334E",
"Y  c #242D50",
"T  c #433148",
"R  c #6E2145",
"E  c #753D44",
"W  c #574141",
"Q  c #79784D",
"!  c #797660",
"~  c #832F3D",
"^  c #933E3E",
"/  c #874B08",
"(  c #8B5303",
")  c #9C580E",
"_  c #9A6904",
"`  c #9C7806",
"'  c #9D691F",
"]  c #AF6A05",
"[  c #A67A03",
"{  c #BE7509",
"}  c #8A412D",
"|  c #935B26",
" . c #864934",
".. c #9C463A",
"X. c #A85129",
"o. c #A54B3B",
"O. c #AC5738",
"+. c #B55A32",
"@. c #BA652A",
"#. c #AD6A3F",
"$. c #B76835",
"%. c #BC7435",
"&. c #C66827",
"*. c #C86B24",
"=. c #C77628",
"-. c #C37D30",
";. c #883648",
":. c #983D45",
">. c #8A3C57",
",. c #9A4242",
"<. c #964B43",
"1. c #924B58",
"2. c #A15A44",
"3. c #9D6142",
"4. c #B76846",
"5. c #B6764F",
"6. c #BB714A",
"7. c #9D5D61",
"8. c #A96170",
"9. c #C87B63",
"0. c #999716",
"q. c #BB8302",
"w. c #BC920B",
"e. c #99A01A",
"r. c #BEAC0E",
"t. c #A9A318",
"y. c #B1A224",
"u. c #BBB826",
"i. c #C88D05",
"p. c #CA890D",
"a. c #D69204",
"s. c #D98718",
"d. c #D99A15",
"f. c #ED990D",
"g. c #E89B16",
"h. c #D0B40D",
"j. c #F6A203",
"k. c #FFAE05",
"l. c #F5A809",
"z. c #FFB404",
"x. c #FFBF06",
"c. c #F9B40A",
"v. c #FEBB0A",
"b. c #FFAE14",
"n. c #F3AA19",
"m. c #E7BB15",
"M. c #FCB513",
"N. c #C4842F",
"B. c #CB892D",
"V. c #DA8A27",
"C. c #CB9C25",
"Z. c #CC932E",
"A. c #D6902F",
"S. c #C98C31",
"D. c #CA9035",
"F. c #E9942F",
"G. c #EB9835",
"H. c #D4AA36",
"J. c #D9B238",
"K. c #E1AF29",
"L. c #F7A726",
"P. c #E5BB25",
"I. c #FFB227",
"U. c #FFB631",
"Y. c #FFC207",
"T. c #FEC40C",
"R. c #FFCA0D",
"E. c #FFD20D",
"W. c #FFDD0E",
"Q. c #FEC210",
"!. c #FECC11",
"~. c #F4C519",
"^. c #FCD414",
"/. c #FFDC15",
"(. c #F8D51A",
"). c #FEDD1A",
"_. c #FFE215",
"`. c #FFE41B",
"'. c #FAE91B",
"]. c #FFEA1D",
"[. c #FFF21F",
"{. c #E9C725",
"}. c #E4CC2A",
"|. c #F7D126",
" X c #F4DB24",
".X c #EBCD33",
"XX c #EBD634",
"oX c #F5ED23",
"OX c #F8E928",
"+X c #F5F225",
"@X c #FEF523",
"#X c #FFFE26",
"$X c #FFFE2A",
"%X c #EFE431",
"&X c #FFFF37",
"*X c #BCBD46",
"=X c #BBB56C",
"-X c #C98A50",
";X c #E3AD42",
":X c #F7BC4C",
">X c #F7BD54",
",X c #CB8B6B",
"<X c #D0936E",
"1X c #D7AC73",
"2X c #F2B567",
"3X c #F2D252",
"4X c #FCF644",
"5X c #F7E952",
"6X c #FCEA59",
"7X c #FCC666",
"8X c #ECD36F",
"9X c #F3D969",
"0X c #FFE465",
"qX c #FFFF68",
"wX c #FBED77",
"eX c #FFFF72",
"rX c #BCB596",
"tX c #DDA085",
"yX c #E7AC8C",
"uX c #F1BB9D",
"iX c #D0AFAD",
"pX c #F7CB8E",
"aX c #FCD89B",
"sX c #FEDD9C",
"dX c #F6EA8B",
"fX c #EBC7A9",
"gX c #FFD5AB",
"hX c #EFD8B5",
"jX c #FCE7A7",
"kX c #FFF8A7",
"lX c #FEE9B8",
"zX c #FFDCC3",
/* pixels */
"I I I I I I I L I I I I I I I I I I I I I I I I I I I I I I I I ",
"I I I L I I I I I I I I I I I I I L w 0 0 0 0 9 0 q H I I I I I ",
"I I I I I I I I I I I I I I I I I q # o o o # o o o 6 K I I I I ",
"I I I I I Y I I I I I I I I I L 8 1 b B C Q ! F B M p 7 G I I I ",
"I I I I I I K K I L L L K K K w & s a.R.%XdXhX5X(.l._ = 5 I I I ",
"I I I I I 8 2 $ 2 2 % $ 2 2 2 : m i.(.~.Z.<X<X-XK.^.h._ p 7 H I ",
"I I I K y > = , , 1 1 , , = O d a.E.'.J.5.4.$.$.Z. X_.c.n o 0 I ",
"I I I 9 & b q.r.*XrX=Xu.w.] x D {._.Q.2XfX8X{.}.{.T.^.`.B o 0 I ",
"I K J > s q.T.(.3XfXpXXX^.M.&.#.y.h.j.7XkXqX#X#X`.z.!.+XC o 8 I ",
"I w & g i.!. XZ.4.6.4.%.K.'.M.{ a b f.|.4X&X#X$X`.z.R.oXC X 0 I ",
"I 9   M T._.|.<X,XD.S.Z.P./.W.d.f N m.W.W._._././.R./.^.B o 0 I ",
"Y 9 o C oXE.I.aXjX4X+X+X!.z.'.}.<.3. X^.l.j.j.j.c.OX/.l.n X 0 I ",
"I 0 o Z +XR.b.0XeX&X#X#XR.k.].XX2.>.5.%.X./ h g _ ~.n.@.f X q I ",
"I 0 X V '.^.v.).$X@X@X@XT.k.|.P.2.;.;.1.>.d = @ s { *.;.r X q I ",
"I 0 o M v._.`.R.v.x.x.x.z.j.-.#.=.V.H.1XiX=Xt.[ ( s j ..i X q Y ",
"I 0 o h s.~.`.R.M.U.U.L.g.s.+.o.g.^.%X8XhX8X XR.i.s f c i X w I ",
"Y w X i ^ V.T._.4XjXgXpX9...*.g./.{.N.6.5.6.S.|.(.i./ =   X q I ",
"I 8 X t ;.+.s.K.3XpXpXtX1.v p.E._..X<X5.N.N.A.|._.R.` +     w I ",
"I 0 X f ..:.,.O.=.L.F.4.z : t.'.Y.:XhXdX%XoXOXv.T.].0.+   X w Y ",
"I w X i ^ O.@.Z.J.2X2X,XE l u.[.z.U.dXqX$X#X@Xz.v.@Xe.+ X 5 K I ",
"I q X r ;.&.f.(.6XlXzXuX8.;.H.'.x.Q.OX$X@X#X@Xv.T.].0.@ 4 L I I ",
"I w X i ..o.+.N.J.>X2X9.E d w.E./.^.R.Y.Y.T.T././.R.` + 4 P I I ",
"I w # d ^ ^ ,.O.B.L.F.4.l - ) n.`./.x.b.I.b.v.`.).f./ O 4 I I I ",
"I K e 7 - ) g.P.3XpXgXyX7.R ~ $.n.E.`.0XsX6X_.E.g.O.l . 5 I I I ",
"I I I 8 & m i.m.3XsXgXyX7.R R ,.*.g..X9XaX9X{.g.&.:.k   5 I I I ",
"I I I I y * < | B.L.G.4.l ; x o.:.,.$.A.L.A.O.<.,.,.x . 5 L I I ",
"I I I I I 8 6 z  .' | S u * d c X.$.S.;X>X;XN.$.X.c d 6 q I I I ",
"I I I I I I I Y U U U Y Y J 3 < { M.OXwXlXwXOXl.] - 3 K I I I I ",
"I I I I I I I I P P P P I I w * s ` C.7X7X3XC._ s 7 0 I I I I I ",
"I I I I I I I I I I I I I I I J % - } =.a.%.~ - % K I I I I I I ",
"I I I I I I I I I I I I I I I I w y T A S W T y H L Y I I I I I ",
"I K K I I I I I I I I I I I I I I I I I P I I I I I I L I I I I "
};
