/* XPM */
static char *result[] = {
/* columns rows colors chars-per-pixel */
"64 64 177 2 ",
"   c #000000",
".  c #0B0603",
"X  c #0E0905",
"o  c #04060D",
"O  c #0A0809",
"+  c #100503",
"@  c #110B07",
"#  c #130D09",
"$  c #190F0A",
"%  c #1B1009",
"&  c #0D0F1C",
"*  c #050914",
"=  c #121010",
"-  c #15141E",
";  c #1B1619",
":  c #24160D",
">  c #25180F",
",  c #2D1A0D",
"<  c #251A14",
"1  c #2E1D13",
"2  c #261C18",
"3  c #311E11",
"4  c #2A241E",
"5  c #24201A",
"6  c #342114",
"7  c #3B2415",
"8  c #3D281A",
"9  c #342018",
"0  c #0E1322",
"q  c #061326",
"w  c #121422",
"e  c #15192D",
"r  c #131826",
"t  c #171C32",
"y  c #181C33",
"u  c #221C23",
"i  c #1A2434",
"p  c #2A2225",
"a  c #2E2922",
"s  c #272024",
"d  c #302628",
"f  c #3A2B23",
"g  c #3A3127",
"h  c #2E2D37",
"j  c #393538",
"k  c #412717",
"l  c #422817",
"z  c #442B1A",
"x  c #492E1C",
"c  c #4C311D",
"v  c #53351E",
"b  c #402E25",
"n  c #403027",
"m  c #4E3220",
"M  c #44332A",
"N  c #4A372A",
"B  c #523621",
"V  c #563923",
"C  c #593B24",
"Z  c #5D3F2A",
"A  c #55382A",
"S  c #41383C",
"D  c #503E37",
"F  c #4F413C",
"G  c #5B473B",
"H  c #5E4A3F",
"J  c #584334",
"K  c #64432C",
"L  c #68472F",
"P  c #6D4B34",
"I  c #654A3B",
"U  c #664936",
"Y  c #704C36",
"T  c #714E38",
"R  c #73533C",
"E  c #7D563E",
"W  c #182950",
"Q  c #3D3B42",
"!  c #1A396F",
"~  c #423B40",
"^  c #29446D",
"/  c #284479",
"(  c #3F5173",
")  c #4C4345",
"_  c #524542",
"`  c #5F585A",
"'  c #645244",
"]  c #7E5740",
"[  c #735747",
"{  c #77604B",
"}  c #726554",
"|  c #746856",
" . c #444B61",
".. c #6F6D7C",
"X. c #716E7A",
"o. c #7B6D71",
"O. c #79717A",
"+. c #825A41",
"@. c #876149",
"#. c #966A4F",
"$. c #9A6C4F",
"%. c #886750",
"&. c #8F6A53",
"*. c #946E55",
"=. c #9A6E52",
"-. c #90785F",
";. c #9D7459",
":. c #A8775A",
">. c #AC7A5C",
",. c #A77659",
"<. c #B07D5F",
"1. c #947D66",
"2. c #9F7B6A",
"3. c #9E7864",
"4. c #AA7F63",
"5. c #B17F60",
"6. c #96846E",
"7. c #9C856D",
"8. c #86817F",
"9. c #998873",
"0. c #A1866C",
"q. c #A78468",
"w. c #B18364",
"e. c #B28768",
"r. c #B4896B",
"t. c #A28E76",
"y. c #AC9476",
"u. c #A59179",
"i. c #AA957B",
"p. c #B49275",
"a. c #BC9779",
"s. c #BB9A7C",
"d. c #1C4582",
"f. c #274E89",
"g. c #28528F",
"h. c #32558D",
"j. c #265097",
"k. c #355B95",
"l. c #355A95",
"z. c #2252A0",
"x. c #275FB2",
"c. c #2966BB",
"v. c #2966BA",
"b. c #455F8C",
"n. c #415E92",
"m. c #45618E",
"M. c #626880",
"N. c #747B8E",
"B. c #777F9A",
"V. c #416FB4",
"C. c #4A77B9",
"Z. c #4774B6",
"A. c #857D8A",
"S. c #7B829C",
"D. c #6E82A7",
"F. c #8A868D",
"G. c #9B938A",
"H. c #81879F",
"J. c #898A98",
"K. c #BEA184",
"L. c #BAA589",
"P. c #B7A287",
"I. c #8088A1",
"U. c #8E93A6",
"Y. c #9399AC",
"T. c #8A9BB9",
"R. c #8092B2",
"E. c #A1A5B4",
"W. c #A8ABB8",
"Q. c #C1A587",
"!. c #C1A789",
"~. c #C4AB8E",
"^. c #C2AE91",
"/. c #C5B093",
"(. c #CAB496",
"). c #CEB899",
"_. c None",
/* pixels */
"_._._._._._._._._._._._._._._._._._._._._._._._._._._._._._._._._._._._._._._._._._._._._._._._._._._._._._._._._._._._._._._._.",
"_._._._._._._._._._._._._._._._._._._._._._._._._._._._._._._._._._._._._._._._._._._._._._._._._._._._._._._._._._._._._._._._.",
"_._._._._._._._._._._._._._._._._._._._._._._._._._._._._._._._._._._._._._._._._._._._._._._._._._._._._._._._._._._._._._._._.",
"_._._._._._._._._._._._._._._._._._._._._._._._._._._._._._._._._._._._._._._._._._._._._._._._._._._._._._._._._._._._._._._._.",
"_._._._._._._._._._._._._._._._._._._._._._._._._._._._._._._._._._._._._._._._._._._._._._._._._._._._._._._._._._._._._._._._.",
"_._._._._._._._._._._._._._._._._._._._._._._._._._._._._._._._._._._._._._._._._._._._._._._._._._._._._._._._._._._._._._._._.",
"_._._._._._._._._._._._._._._._._._._._._._._._._._._._._._._._._._._._._._._._._._._._._._._._._._._._._._._._._._._._._._._._.",
"_._._._._._._._._._._._._._._._._._._._._._._._._._._._._._._._._._._._._._._._._._._._._._._._._._._._._._._._._._._._._._._._.",
"_._._._._._._._._._._._._._._._._._._._._._._._._._._._._._._._._._._._._._._._._._._._._._._._._._._._._._._._._._._._._._._._.",
"_._._._._._._._._._._._._._._._._._._._._._._._._._._._._._._._._._._._._._._._._._._._._._._._._._._._._._._._._._._._._._._._.",
"_._._._._._._._._._._._._._._._._._._._._._._._._._._._._._._._._._._._._._._._._._._._._._._._._._._._._._._._._._._._._._._._.",
"_._._._._._._._._._._._._._._._._._._._._._._._._._._._._._._._._._._._._._._._._._._._._._._._._._._._._._._._._._._._._._._._.",
"_._._._._._._._._._._._._._._._._._._._._._.                _._.        _._._._._._._._._._._._._._._._._._._._._._._._._._._._.",
"_._._._._._._._._._._._._._._._._._._._._._.  . # # # # X X _._.# X .   _._._._._._._._._._._._._._._._._._._._._._._._._._._._.",
"_._._._._._._._._._._._._._._._._._._._._._.  @ 6 8 x 8 6 : X @ 6 6 X           _._._._._._._._._._._._._._._._._._._._._._._._.",
"_._._._._._._._._._._._._._._._._._._._._._.  @ 6 c V V c 7 % % c c % # # # # # _._._._._._._._._._._._._._._._._._._._._._._._.",
"_._._._._._._._._._._._._._._._._._._._._._.    X > c v v c 6 7 c v 7 6 8 8 8 6 @   _._._._._._._._._._._._._._._._._._._._._._.",
"_._._._._._._._._._._._._._._._._._._._._._.X @ # % x J K v c c v v c c v v K x < @ _._._._._._._._._._._._._._._._._._._._._._.",
"_._._._._._._._._._._._._._._._._._._._.  . : 6 8 x V V v V v v J v v v J v K v x 6 @   _._._._._._._._._._._._._._._._._._._._.",
"_._._._._._._._._._._._._._._._._._._._.X % 7 c V V V V V V J v C v C C V C V C C x > @ _._._._._._._._._._._._._._._._._._._._.",
"_._._._._._._._._._._._._._._._._._.  X : 7 x B V K v V V C V C V V C C C V V C C B c 6 #   _._._._._._._._._._._._._._._._._._.",
"_._._._._._._._._._._._._._._._._._.  X 3 x B C V V B B V V V V V V v v c v v V V C K 8 #   _._._._._._._._._._._._._._._._._._.",
"_._._._._._._._._._._._._._._._._._.  X 3 x B C V B x c v V V V J v c z z x v V v K V 8 @   _._._._._._._._._._._._._._._._._._.",
"_._._._._._._._._._._._._._._._._._.  X 3 z c B v c z z B C C V v v z z c J L K V v V x : X _._._._._._._._._._._._._._._._._._.",
"_._._._._._._._._._._._._._._._._._.  X 3 l z z z z k z B V V V V v l B E #.$.+.V x B v 7 : X   _._._._._._._._._._._._._._._._.",
"_._._._._._._._._._._._._._._._._._.  X 3 z z z k k 7 z m C C V v v C Y $.w.<.=.Y Z B m x 3 X   _._._._._._._._._._._._._._._._.",
"_._._._._._._._._._._._._._._._._._.  X 1 z c v l k k l B V C B z B ] ;.:.>.>.:.=.+.Z z l 3 +   _._._._._._._._._._._._._._._._.",
"_._._._._._._._._._._._._._._._._._.  @ 3 x B B x x V V B B B V V L ] *.q.e.e.w.=.T b 3 7 3 +   _._._._._._._._._._._._._._._._.",
"_._._._._._._._._._._._._._._._._._.  X 3 z B V B K +.+.C z v L +.] A I 7.Q.Q.0.I 3 $ % 6 6 @   _._._._._._._._._._._._._._._._.",
"_._._._._._._._._._._._._._._._._._.  X 3 z c v v Y =.=.Y V c U ;.&.8 n 6.(.(.7.M +   X : > X   _._._._._._._._._._._._._._._._.",
"_._._._._._._._._._._._._._._._._._.  X 3 z z x v Y $.>.=.E B U 0.7.f n 6.(./.7.N + .   . . _._._._._._._._._._._._._._._._._._.",
"_._._._._._._._._._._._._._._._._._.  X > 6 7 z x L $.<.5.=.R [ i.u.' ' t././.u.' a X       _._._._._._._._._._._._._._._._._._.",
"_._._._._._._._._._._._._._._._._._._._.X $ 6 l l K #.<.<.q.0.y.L.L.t.t.P.^.L.L.i.} 2   _._._._._._._._._._._._._._._._._._._._.",
"_._._._._._._._._._._._._._._._._._._._.  X : 3 7 B E $.,.r.s.Q.~.^././.^.~././.~.1.a   _._._._._._._._._._._._._._._._._._._._.",
"_._._._._._._._._._._._._._._._._._._._._._.. % 3 x B T $.w.e.p.L.^.^.^.~.~./.!.a.%.5   _._._._._._._._._._._._._._._._._._._._.",
"_._._._._._._._._._._._._._._._._._._._._._.  X : 3 7 v E $.,.w.a.K.K.K.K.Q.L.y.*.U <   _._._._._._._._._._._._._._._._._._._._.",
"_._._._._._._._._._._._._._._._._._._._._._._._.X $ 3 z v Y $.w.e.e.e.e.e.r.r.*.N < _._._._._._._._._._._._._._._._._._._._._._.",
"_._._._._._._._._._._._._._._._._._._._._._._._.  @ 3 l 7 v +.;.3.2.2.4.2.3.*.P :   _._._._._._._._._._._._._._._._._._._._._._.",
"_._._._._._._._._._._._._._._._._._._._._._._._.  X 3 7 7 x K { O.A.A.A.A.o.' l #   _._._._._._._._._._._._._._._._._._._._._._.",
"_._._._._._._._._._._._._._._._._._._._._._._._.  X , l l x c H ..B.B.S.I.X.D , X   _._._._._._._._._._._._._._._._._._._._._._.",
"_._._._._._._._._._._._._._._._._._._._._._._._.  . , l c v v H ..B.B.I.Y.F.G , .   _._._._._._._._._._._._._._._._._._._._._._.",
"_._._._._._._._._._._._._._._._._._._._._._._._.4 g J J K v V H X.S.I.U.E.J.G 6 1 < _._._._._._._._._._._._._._._._._._._._._._.",
"_._._._._._._._._._._._._._._._._._._._._._.  4 | 9.t.-.P v v H M.S.Y.E.W.F.G v R T <   _._._._._._._._._._._._._._._._._._._._.",
"_._._._._._._._._._._._._._._._._._._._._._.  a 6.).(.y.R v v H M.B.R.T.T.N.D Z $.+.4   _._._._._._._._._._._._._._._._._._._._.",
"_._._._._._._._._._._._._._._._._._._._._._.  a 6.).(.u.R v V _ m.Z.Z.Z.C.b.S Z $.@.2   _._._._._._._._._._._._._._._._._._._._.",
"_._._._._._._._._._._._._._._._._._._._._._.  p | 9.G.F.` ) )  .l.v.v.v.c.h.h z T I 2   _._._._._._._._._._._._._._._._._._._._.",
"_._._._._._._._._._._._._._._._._._._._._._._.; p j ( n.n.k.k.l.j.z.x.v.c.g.t @ : 2 ; _._._._._._._._._._._._._._._._._._._._._.",
"_._._._._._._._._._._._._._._._._._._._._._._.0   * W / h.k.g.d.! ! f.h.l.^ 0     o 0 _._._._._._._._._._._._._._._._._._._._._.",
"_._._._._._._._._._._._._._._._._._._._._._._.&   O u S ) Q i q q r h ~ ) j =   * 0 e _._._._._._._._._._._._._._._._._._._._._.",
"_._._._._._._._._._._._._._._._._._._._._.y y 0 * @ 1 z m 8 #     + 1 z m 8 $ o w _._.y y _._._._._._._._._._._._._._._._._._._.",
"_._._._._._._._._._._._._._._._._._._._._.y y e w w u p d p w & & - u p d p r w e _._.y y _._._._._._._._._._._._._._._._._._._.",
"_._._._._._._._._._._._._._._._._._._._._._._.y y _._._._._._._._._._._._._._.y y y y _._._._._._._._._._._._._._._._._._._._._.",
"_._._._._._._._._._._._._._._._._._._._._._._.y y y y y t y y y y y t t t t y y y y y _._._._._._._._._._._._._._._._._._._._._.",
"_._._._._._._._._._._._._._._._._._._._._._._._._._._._._._._._._._._._._._._._._._._._._._._._._._._._._._._._._._._._._._._._.",
"_._._._._._._._._._._._._._._._._._._._._._._._._._._._._._._._._._._._._._._._._._._._._._._._._._._._._._._._._._._._._._._._.",
"_._._._._._._._._._._._._._._._._._._._._._._._._._._._._._._._._._._._._._._._._._._._._._._._._._._._._._._._._._._._._._._._.",
"_._._._._._._._._._._._._._._._._._._._._._._._._._._._._._._._._._._._._._._._._._._._._._._._._._._._._._._._._._._._._._._._.",
"_._._._._._._._._._._._._._._._._._._._._._._._._._._._._._._._._._._._._._._._._._._._._._._._._._._._._._._._._._._._._._._._.",
"_._._._._._._._._._._._._._._._._._._._._._._._._._._._._._._._._._._._._._._._._._._._._._._._._._._._._._._._._._._._._._._._.",
"_._._._._._._._._._._._._._._._._._._._._._._._._._._._._._._._._._._._._._._._._._._._._._._._._._._._._._._._._._._._._._._._.",
"_._._._._._._._._._._._._._._._._._._._._._._._._._._._._._._._._._._._._._._._._._._._._._._._._._._._._._._._._._._._._._._._.",
"_._._._._._._._._._._._._._._._._._._._._._._._._._._._._._._._._._._._._._._._._._._._._._._._._._._._._._._._._._._._._._._._.",
"_._._._._._._._._._._._._._._._._._._._._._._._._._._._._._._._._._._._._._._._._._._._._._._._._._._._._._._._._._._._._._._._.",
"_._._._._._._._._._._._._._._._._._._._._._._._._._._._._._._._._._._._._._._._._._._._._._._._._._._._._._._._._._._._._._._._."
};
